<svg width="162" height="53" viewBox="0 0 162 53" fill="none" xmlns="http://www.w3.org/2000/svg">
<path d="M10 24H6L24 6L42 24H38M10 24V38C10 39.0609 10.4214 40.0783 11.1716 40.8284C11.9217 41.5786 12.9391 42 14 42H34C35.0609 42 36.0783 41.5786 36.8284 40.8284C37.5786 40.0783 38 39.0609 38 38V24" stroke="#6366F1" stroke-width="3.16667" stroke-linecap="round" stroke-linejoin="round"/>
<path d="M18 42V30C18 28.9391 18.4214 27.9217 19.1716 27.1716C19.9217 26.4214 20.9391 26 22 26H26C27.0609 26 28.0783 26.4214 28.8284 27.1716C29.5786 27.9217 30 28.9391 30 30V42" stroke="#6366F1" stroke-width="3.16667" stroke-linecap="round" stroke-linejoin="round"/>
<path d="M53.48 44C52.952 44 52.544 43.864 52.256 43.592C51.984 43.304 51.848 42.896 51.848 42.368V28.712C51.848 28.184 51.984 27.784 52.256 27.512C52.544 27.224 52.952 27.08 53.48 27.08H59.24C60.424 27.08 61.432 27.256 62.264 27.608C63.096 27.96 63.728 28.464 64.16 29.12C64.608 29.776 64.832 30.56 64.832 31.472C64.832 32.496 64.536 33.36 63.944 34.064C63.352 34.768 62.544 35.24 61.52 35.48V35.12C62.704 35.296 63.624 35.744 64.28 36.464C64.936 37.184 65.264 38.12 65.264 39.272C65.264 40.776 64.752 41.944 63.728 42.776C62.72 43.592 61.312 44 59.504 44H53.48ZM54.8 41.672H59.12C60.208 41.672 61.008 41.464 61.52 41.048C62.032 40.616 62.288 39.976 62.288 39.128C62.288 38.264 62.032 37.624 61.52 37.208C61.008 36.792 60.208 36.584 59.12 36.584H54.8V41.672ZM54.8 34.256H58.712C59.768 34.256 60.552 34.056 61.064 33.656C61.592 33.24 61.856 32.632 61.856 31.832C61.856 31.032 61.592 30.432 61.064 30.032C60.552 29.616 59.768 29.408 58.712 29.408H54.8V34.256ZM71.0594 48.512C70.7074 48.512 70.4194 48.416 70.1954 48.224C69.9714 48.048 69.8354 47.808 69.7874 47.504C69.7554 47.2 69.8114 46.88 69.9554 46.544L71.5874 42.92V44.168L67.2194 34.064C67.0754 33.712 67.0274 33.384 67.0754 33.08C67.1234 32.776 67.2674 32.536 67.5074 32.36C67.7634 32.168 68.1074 32.072 68.5394 32.072C68.9074 32.072 69.2034 32.16 69.4274 32.336C69.6514 32.496 69.8514 32.808 70.0274 33.272L73.2674 41.36H72.5474L75.8594 33.248C76.0354 32.8 76.2434 32.496 76.4834 32.336C76.7234 32.16 77.0434 32.072 77.4434 32.072C77.7954 32.072 78.0754 32.168 78.2834 32.36C78.4914 32.536 78.6194 32.776 78.6674 33.08C78.7154 33.368 78.6594 33.688 78.4994 34.04L72.6674 47.36C72.4594 47.808 72.2354 48.112 71.9954 48.272C71.7554 48.432 71.4434 48.512 71.0594 48.512ZM84.3459 44.24C83.4979 44.24 82.7379 44.08 82.0659 43.76C81.4099 43.424 80.8899 42.976 80.5059 42.416C80.1379 41.856 79.9539 41.224 79.9539 40.52C79.9539 39.656 80.1779 38.976 80.6259 38.48C81.0739 37.968 81.8019 37.6 82.8099 37.376C83.8179 37.152 85.1699 37.04 86.8659 37.04H88.0659V38.768H86.8899C85.8979 38.768 85.1059 38.816 84.5139 38.912C83.9219 39.008 83.4979 39.176 83.2419 39.416C83.0019 39.64 82.8819 39.96 82.8819 40.376C82.8819 40.904 83.0659 41.336 83.4339 41.672C83.8019 42.008 84.3139 42.176 84.9699 42.176C85.4979 42.176 85.9619 42.056 86.3619 41.816C86.7779 41.56 87.1059 41.216 87.3459 40.784C87.5859 40.352 87.7059 39.856 87.7059 39.296V36.536C87.7059 35.736 87.5299 35.16 87.1779 34.808C86.8259 34.456 86.2339 34.28 85.4019 34.28C84.9379 34.28 84.4339 34.336 83.8899 34.448C83.3619 34.56 82.8019 34.752 82.2099 35.024C81.9059 35.168 81.6339 35.208 81.3939 35.144C81.1699 35.08 80.9939 34.952 80.8659 34.76C80.7379 34.552 80.6739 34.328 80.6739 34.088C80.6739 33.848 80.7379 33.616 80.8659 33.392C80.9939 33.152 81.2099 32.976 81.5139 32.864C82.2499 32.56 82.9539 32.344 83.6259 32.216C84.3139 32.088 84.9379 32.024 85.4979 32.024C86.6499 32.024 87.5939 32.2 88.3299 32.552C89.0819 32.904 89.6419 33.44 90.0099 34.16C90.3779 34.864 90.5619 35.776 90.5619 36.896V42.656C90.5619 43.152 90.4419 43.536 90.2019 43.808C89.9619 44.064 89.6179 44.192 89.1699 44.192C88.7219 44.192 88.3699 44.064 88.1139 43.808C87.8739 43.536 87.7539 43.152 87.7539 42.656V41.504H87.9459C87.8339 42.064 87.6099 42.552 87.2739 42.968C86.9539 43.368 86.5459 43.68 86.0499 43.904C85.5539 44.128 84.9859 44.24 84.3459 44.24ZM95.0949 44.192C94.6149 44.192 94.2469 44.064 93.9909 43.808C93.7349 43.536 93.6069 43.152 93.6069 42.656V28.4C93.6069 27.904 93.7349 27.528 93.9909 27.272C94.2469 27.016 94.6149 26.888 95.0949 26.888C95.5749 26.888 95.9429 27.016 96.1989 27.272C96.4709 27.528 96.6069 27.904 96.6069 28.4V34.616H96.2709C96.6229 33.768 97.1669 33.128 97.9029 32.696C98.6549 32.248 99.5029 32.024 100.447 32.024C101.391 32.024 102.167 32.2 102.775 32.552C103.383 32.904 103.839 33.44 104.143 34.16C104.447 34.864 104.599 35.76 104.599 36.848V42.656C104.599 43.152 104.471 43.536 104.215 43.808C103.959 44.064 103.591 44.192 103.111 44.192C102.631 44.192 102.255 44.064 101.983 43.808C101.727 43.536 101.599 43.152 101.599 42.656V36.992C101.599 36.08 101.423 35.416 101.071 35C100.735 34.584 100.207 34.376 99.4869 34.376C98.6069 34.376 97.9029 34.656 97.3749 35.216C96.8629 35.76 96.6069 36.488 96.6069 37.4V42.656C96.6069 43.68 96.1029 44.192 95.0949 44.192ZM113.43 44.24C112.102 44.24 110.958 43.992 109.998 43.496C109.038 43 108.294 42.296 107.766 41.384C107.254 40.472 106.998 39.392 106.998 38.144C106.998 36.928 107.246 35.864 107.742 34.952C108.254 34.04 108.95 33.328 109.83 32.816C110.726 32.288 111.742 32.024 112.878 32.024C113.71 32.024 114.454 32.16 115.11 32.432C115.782 32.704 116.35 33.096 116.814 33.608C117.294 34.12 117.654 34.744 117.894 35.48C118.15 36.2 118.278 37.016 118.278 37.928C118.278 38.216 118.174 38.44 117.966 38.6C117.774 38.744 117.494 38.816 117.126 38.816H109.422V37.088H116.166L115.782 37.448C115.782 36.712 115.67 36.096 115.446 35.6C115.238 35.104 114.926 34.728 114.51 34.472C114.11 34.2 113.606 34.064 112.998 34.064C112.326 34.064 111.75 34.224 111.27 34.544C110.806 34.848 110.446 35.288 110.19 35.864C109.95 36.424 109.83 37.096 109.83 37.88V38.048C109.83 39.36 110.134 40.344 110.742 41C111.366 41.64 112.278 41.96 113.478 41.96C113.894 41.96 114.358 41.912 114.87 41.816C115.398 41.704 115.894 41.52 116.358 41.264C116.694 41.072 116.99 40.992 117.246 41.024C117.502 41.04 117.702 41.128 117.846 41.288C118.006 41.448 118.102 41.648 118.134 41.888C118.166 42.112 118.118 42.344 117.99 42.584C117.878 42.824 117.678 43.032 117.39 43.208C116.83 43.56 116.182 43.824 115.446 44C114.726 44.16 114.054 44.24 113.43 44.24ZM122.094 44.12C121.55 44.12 121.11 43.952 120.774 43.616C120.454 43.28 120.294 42.848 120.294 42.32C120.294 41.808 120.454 41.392 120.774 41.072C121.11 40.736 121.55 40.568 122.094 40.568C122.654 40.568 123.086 40.736 123.39 41.072C123.71 41.392 123.87 41.808 123.87 42.32C123.87 42.848 123.71 43.28 123.39 43.616C123.086 43.952 122.654 44.12 122.094 44.12ZM128.095 44.192C127.615 44.192 127.247 44.064 126.991 43.808C126.735 43.536 126.607 43.152 126.607 42.656V33.584C126.607 33.088 126.735 32.712 126.991 32.456C127.247 32.2 127.607 32.072 128.071 32.072C128.535 32.072 128.895 32.2 129.151 32.456C129.407 32.712 129.535 33.088 129.535 33.584V35.216L129.271 34.616C129.623 33.768 130.167 33.128 130.903 32.696C131.655 32.248 132.503 32.024 133.447 32.024C134.391 32.024 135.167 32.2 135.775 32.552C136.383 32.904 136.839 33.44 137.143 34.16C137.447 34.864 137.599 35.76 137.599 36.848V42.656C137.599 43.152 137.471 43.536 137.215 43.808C136.959 44.064 136.591 44.192 136.111 44.192C135.631 44.192 135.255 44.064 134.983 43.808C134.727 43.536 134.599 43.152 134.599 42.656V36.992C134.599 36.08 134.423 35.416 134.071 35C133.735 34.584 133.207 34.376 132.487 34.376C131.607 34.376 130.903 34.656 130.375 35.216C129.863 35.76 129.607 36.488 129.607 37.4V42.656C129.607 43.68 129.103 44.192 128.095 44.192ZM146.43 44.24C145.102 44.24 143.958 43.992 142.998 43.496C142.038 43 141.294 42.296 140.766 41.384C140.254 40.472 139.998 39.392 139.998 38.144C139.998 36.928 140.246 35.864 140.742 34.952C141.254 34.04 141.95 33.328 142.83 32.816C143.726 32.288 144.742 32.024 145.878 32.024C146.71 32.024 147.454 32.16 148.11 32.432C148.782 32.704 149.35 33.096 149.814 33.608C150.294 34.12 150.654 34.744 150.894 35.48C151.15 36.2 151.278 37.016 151.278 37.928C151.278 38.216 151.174 38.44 150.966 38.6C150.774 38.744 150.494 38.816 150.126 38.816H142.422V37.088H149.166L148.782 37.448C148.782 36.712 148.67 36.096 148.446 35.6C148.238 35.104 147.926 34.728 147.51 34.472C147.11 34.2 146.606 34.064 145.998 34.064C145.326 34.064 144.75 34.224 144.27 34.544C143.806 34.848 143.446 35.288 143.19 35.864C142.95 36.424 142.83 37.096 142.83 37.88V38.048C142.83 39.36 143.134 40.344 143.742 41C144.366 41.64 145.278 41.96 146.478 41.96C146.894 41.96 147.358 41.912 147.87 41.816C148.398 41.704 148.894 41.52 149.358 41.264C149.694 41.072 149.99 40.992 150.246 41.024C150.502 41.04 150.702 41.128 150.846 41.288C151.006 41.448 151.102 41.648 151.134 41.888C151.166 42.112 151.118 42.344 150.99 42.584C150.878 42.824 150.678 43.032 150.39 43.208C149.83 43.56 149.182 43.824 148.446 44C147.726 44.16 147.054 44.24 146.43 44.24ZM158.983 44.24C157.943 44.24 157.071 44.064 156.367 43.712C155.679 43.36 155.167 42.848 154.831 42.176C154.495 41.488 154.327 40.64 154.327 39.632V34.52H153.079C152.695 34.52 152.399 34.424 152.191 34.232C151.983 34.024 151.879 33.744 151.879 33.392C151.879 33.024 151.983 32.744 152.191 32.552C152.399 32.36 152.695 32.264 153.079 32.264H154.327V30.08C154.327 29.584 154.455 29.208 154.711 28.952C154.983 28.696 155.359 28.568 155.839 28.568C156.319 28.568 156.687 28.696 156.943 28.952C157.199 29.208 157.327 29.584 157.327 30.08V32.264H159.871C160.255 32.264 160.551 32.36 160.759 32.552C160.967 32.744 161.071 33.024 161.071 33.392C161.071 33.744 160.967 34.024 160.759 34.232C160.551 34.424 160.255 34.52 159.871 34.52H157.327V39.464C157.327 40.232 157.495 40.808 157.831 41.192C158.167 41.576 158.711 41.768 159.463 41.768C159.735 41.768 159.975 41.744 160.183 41.696C160.391 41.648 160.575 41.616 160.735 41.6C160.927 41.584 161.087 41.648 161.215 41.792C161.343 41.92 161.407 42.192 161.407 42.608C161.407 42.928 161.351 43.216 161.239 43.472C161.143 43.712 160.959 43.88 160.687 43.976C160.479 44.04 160.207 44.096 159.871 44.144C159.535 44.208 159.239 44.24 158.983 44.24Z" fill="#4B5563"/>
<path d="M53.256 21.128C52.9253 21.128 52.6693 21.0373 52.488 20.856C52.3173 20.664 52.232 20.4027 52.232 20.072V10.76C52.232 10.4187 52.3227 10.1627 52.504 9.992C52.6853 9.81067 52.9413 9.72 53.272 9.72H57.128C58.3653 9.72 59.32 10.0293 59.992 10.648C60.664 11.2667 61 12.1307 61 13.24C61 14.3493 60.664 15.2187 59.992 15.848C59.32 16.4667 58.3653 16.776 57.128 16.776H54.28V20.072C54.28 20.4027 54.1947 20.664 54.024 20.856C53.8533 21.0373 53.5973 21.128 53.256 21.128ZM54.28 15.16H56.808C57.5333 15.16 58.0827 15 58.456 14.68C58.8293 14.3493 59.016 13.8693 59.016 13.24C59.016 12.6107 58.8293 12.136 58.456 11.816C58.0827 11.496 57.5333 11.336 56.808 11.336H54.28V15.16ZM64.6785 21.16C64.1132 21.16 63.6065 21.0533 63.1585 20.84C62.7212 20.616 62.3745 20.3173 62.1185 19.944C61.8732 19.5707 61.7505 19.1493 61.7505 18.68C61.7505 18.104 61.8998 17.6507 62.1985 17.32C62.4972 16.9787 62.9825 16.7333 63.6545 16.584C64.3265 16.4347 65.2278 16.36 66.3585 16.36H67.1585V17.512H66.3745C65.7132 17.512 65.1852 17.544 64.7905 17.608C64.3958 17.672 64.1132 17.784 63.9425 17.944C63.7825 18.0933 63.7025 18.3067 63.7025 18.584C63.7025 18.936 63.8252 19.224 64.0705 19.448C64.3158 19.672 64.6572 19.784 65.0945 19.784C65.4465 19.784 65.7558 19.704 66.0225 19.544C66.2998 19.3733 66.5185 19.144 66.6785 18.856C66.8385 18.568 66.9185 18.2373 66.9185 17.864V16.024C66.9185 15.4907 66.8012 15.1067 66.5665 14.872C66.3318 14.6373 65.9372 14.52 65.3825 14.52C65.0732 14.52 64.7372 14.5573 64.3745 14.632C64.0225 14.7067 63.6492 14.8347 63.2545 15.016C63.0518 15.112 62.8705 15.1387 62.7105 15.096C62.5612 15.0533 62.4438 14.968 62.3585 14.84C62.2732 14.7013 62.2305 14.552 62.2305 14.392C62.2305 14.232 62.2732 14.0773 62.3585 13.928C62.4438 13.768 62.5878 13.6507 62.7905 13.576C63.2812 13.3733 63.7505 13.2293 64.1985 13.144C64.6572 13.0587 65.0732 13.016 65.4465 13.016C66.2145 13.016 66.8438 13.1333 67.3345 13.368C67.8358 13.6027 68.2092 13.96 68.4545 14.44C68.6998 14.9093 68.8225 15.5173 68.8225 16.264V20.104C68.8225 20.4347 68.7425 20.6907 68.5825 20.872C68.4225 21.0427 68.1932 21.128 67.8945 21.128C67.5958 21.128 67.3612 21.0427 67.1905 20.872C67.0305 20.6907 66.9505 20.4347 66.9505 20.104V19.336H67.0785C67.0038 19.7093 66.8545 20.0347 66.6305 20.312C66.4172 20.5787 66.1452 20.7867 65.8145 20.936C65.4838 21.0853 65.1052 21.16 64.6785 21.16ZM71.8445 21.128C71.5245 21.128 71.2792 21.0427 71.1085 20.872C70.9378 20.6907 70.8525 20.4347 70.8525 20.104V10.6C70.8525 10.2693 70.9378 10.0187 71.1085 9.848C71.2792 9.67733 71.5245 9.592 71.8445 9.592C72.1645 9.592 72.4098 9.67733 72.5805 9.848C72.7618 10.0187 72.8525 10.2693 72.8525 10.6V14.744H72.6285C72.8632 14.1787 73.2258 13.752 73.7165 13.464C74.2178 13.1653 74.7832 13.016 75.4125 13.016C76.0418 13.016 76.5592 13.1333 76.9645 13.368C77.3698 13.6027 77.6738 13.96 77.8765 14.44C78.0792 14.9093 78.1805 15.5067 78.1805 16.232V20.104C78.1805 20.4347 78.0952 20.6907 77.9245 20.872C77.7538 21.0427 77.5085 21.128 77.1885 21.128C76.8685 21.128 76.6178 21.0427 76.4365 20.872C76.2658 20.6907 76.1805 20.4347 76.1805 20.104V16.328C76.1805 15.72 76.0632 15.2773 75.8285 15C75.6045 14.7227 75.2525 14.584 74.7725 14.584C74.1858 14.584 73.7165 14.7707 73.3645 15.144C73.0232 15.5067 72.8525 15.992 72.8525 16.6V20.104C72.8525 20.7867 72.5165 21.128 71.8445 21.128ZM81.2039 21.112C80.8839 21.112 80.6385 21.016 80.4679 20.824C80.2972 20.632 80.2119 20.3653 80.2119 20.024V14.152C80.2119 13.8 80.2972 13.5333 80.4679 13.352C80.6385 13.16 80.8839 13.064 81.2039 13.064C81.5239 13.064 81.7692 13.16 81.9399 13.352C82.1212 13.5333 82.2119 13.8 82.2119 14.152V20.024C82.2119 20.3653 82.1265 20.632 81.9559 20.824C81.7852 21.016 81.5345 21.112 81.2039 21.112ZM81.2039 11.576C80.8305 11.576 80.5372 11.4853 80.3239 11.304C80.1212 11.112 80.0199 10.8507 80.0199 10.52C80.0199 10.1787 80.1212 9.91733 80.3239 9.736C80.5372 9.55467 80.8305 9.464 81.2039 9.464C81.5879 9.464 81.8812 9.55467 82.0839 9.736C82.2865 9.91733 82.3879 10.1787 82.3879 10.52C82.3879 10.8507 82.2865 11.112 82.0839 11.304C81.8812 11.4853 81.5879 11.576 81.2039 11.576ZM85.282 21.128C84.962 21.128 84.7167 21.0427 84.546 20.872C84.3753 20.6907 84.29 20.4347 84.29 20.104V14.056C84.29 13.7253 84.3753 13.4747 84.546 13.304C84.7167 13.1333 84.9567 13.048 85.266 13.048C85.5753 13.048 85.8153 13.1333 85.986 13.304C86.1567 13.4747 86.242 13.7253 86.242 14.056V15.144L86.066 14.744C86.3007 14.1787 86.6633 13.752 87.154 13.464C87.6553 13.1653 88.2207 13.016 88.85 13.016C89.4793 13.016 89.9967 13.1333 90.402 13.368C90.8073 13.6027 91.1113 13.96 91.314 14.44C91.5167 14.9093 91.618 15.5067 91.618 16.232V20.104C91.618 20.4347 91.5327 20.6907 91.362 20.872C91.1913 21.0427 90.946 21.128 90.626 21.128C90.306 21.128 90.0553 21.0427 89.874 20.872C89.7033 20.6907 89.618 20.4347 89.618 20.104V16.328C89.618 15.72 89.5007 15.2773 89.266 15C89.042 14.7227 88.69 14.584 88.21 14.584C87.6233 14.584 87.154 14.7707 86.802 15.144C86.4607 15.5067 86.29 15.992 86.29 16.6V20.104C86.29 20.7867 85.954 21.128 85.282 21.128ZM97.2974 24.04C96.7214 24.04 96.1614 23.9867 95.6174 23.88C95.084 23.7733 94.5987 23.608 94.1614 23.384C93.9587 23.2773 93.82 23.1493 93.7454 23C93.6814 22.8507 93.66 22.696 93.6814 22.536C93.7134 22.3867 93.7774 22.2533 93.8734 22.136C93.98 22.0187 94.108 21.9387 94.2574 21.896C94.4067 21.8533 94.5614 21.8747 94.7214 21.96C95.1907 22.1947 95.6334 22.344 96.0494 22.408C96.476 22.4827 96.8387 22.52 97.1374 22.52C97.852 22.52 98.3854 22.344 98.7374 21.992C99.1 21.6507 99.2814 21.1387 99.2814 20.456V19.016H99.4254C99.2654 19.56 98.9294 19.9973 98.4174 20.328C97.916 20.648 97.3454 20.808 96.7054 20.808C96.0014 20.808 95.388 20.648 94.8654 20.328C94.3427 19.9973 93.9374 19.5387 93.6494 18.952C93.3614 18.3653 93.2174 17.6827 93.2174 16.904C93.2174 16.3173 93.2974 15.7893 93.4574 15.32C93.628 14.84 93.8627 14.4293 94.1614 14.088C94.4707 13.7467 94.8387 13.4853 95.2654 13.304C95.7027 13.112 96.1827 13.016 96.7054 13.016C97.3667 13.016 97.9427 13.1813 98.4334 13.512C98.9347 13.832 99.26 14.2587 99.4094 14.792L99.2494 15.192V14.056C99.2494 13.7253 99.3347 13.4747 99.5054 13.304C99.6867 13.1333 99.932 13.048 100.241 13.048C100.561 13.048 100.807 13.1333 100.977 13.304C101.148 13.4747 101.233 13.7253 101.233 14.056V20.216C101.233 21.4853 100.897 22.44 100.225 23.08C99.5534 23.72 98.5774 24.04 97.2974 24.04ZM97.2494 19.288C97.6654 19.288 98.0227 19.192 98.3214 19C98.62 18.808 98.8494 18.536 99.0094 18.184C99.18 17.8213 99.2654 17.3947 99.2654 16.904C99.2654 16.168 99.084 15.592 98.7214 15.176C98.3587 14.7493 97.868 14.536 97.2494 14.536C96.8334 14.536 96.476 14.632 96.1774 14.824C95.8787 15.016 95.644 15.288 95.4734 15.64C95.3134 15.992 95.2334 16.4133 95.2334 16.904C95.2334 17.64 95.4147 18.2213 95.7774 18.648C96.14 19.0747 96.6307 19.288 97.2494 19.288ZM105.882 21.16C105.316 21.16 104.81 21.0533 104.362 20.84C103.924 20.616 103.578 20.3173 103.322 19.944C103.076 19.5707 102.954 19.1493 102.954 18.68C102.954 18.104 103.103 17.6507 103.402 17.32C103.7 16.9787 104.186 16.7333 104.858 16.584C105.53 16.4347 106.431 16.36 107.562 16.36H108.362V17.512H107.578C106.916 17.512 106.388 17.544 105.994 17.608C105.599 17.672 105.316 17.784 105.146 17.944C104.986 18.0933 104.906 18.3067 104.906 18.584C104.906 18.936 105.028 19.224 105.274 19.448C105.519 19.672 105.86 19.784 106.298 19.784C106.65 19.784 106.959 19.704 107.226 19.544C107.503 19.3733 107.722 19.144 107.882 18.856C108.042 18.568 108.122 18.2373 108.122 17.864V16.024C108.122 15.4907 108.004 15.1067 107.77 14.872C107.535 14.6373 107.14 14.52 106.586 14.52C106.276 14.52 105.94 14.5573 105.578 14.632C105.226 14.7067 104.852 14.8347 104.458 15.016C104.255 15.112 104.074 15.1387 103.914 15.096C103.764 15.0533 103.647 14.968 103.562 14.84C103.476 14.7013 103.434 14.552 103.434 14.392C103.434 14.232 103.476 14.0773 103.562 13.928C103.647 13.768 103.791 13.6507 103.994 13.576C104.484 13.3733 104.954 13.2293 105.402 13.144C105.86 13.0587 106.276 13.016 106.65 13.016C107.418 13.016 108.047 13.1333 108.538 13.368C109.039 13.6027 109.412 13.96 109.658 14.44C109.903 14.9093 110.026 15.5173 110.026 16.264V20.104C110.026 20.4347 109.946 20.6907 109.786 20.872C109.626 21.0427 109.396 21.128 109.098 21.128C108.799 21.128 108.564 21.0427 108.394 20.872C108.234 20.6907 108.154 20.4347 108.154 20.104V19.336H108.282C108.207 19.7093 108.058 20.0347 107.834 20.312C107.62 20.5787 107.348 20.7867 107.018 20.936C106.687 21.0853 106.308 21.16 105.882 21.16ZM113.048 21.128C112.728 21.128 112.482 21.0427 112.312 20.872C112.141 20.6907 112.056 20.4347 112.056 20.104V10.6C112.056 10.2693 112.141 10.0187 112.312 9.848C112.482 9.67733 112.728 9.592 113.048 9.592C113.368 9.592 113.613 9.67733 113.784 9.848C113.965 10.0187 114.056 10.2693 114.056 10.6V14.744H113.832C114.066 14.1787 114.429 13.752 114.92 13.464C115.421 13.1653 115.986 13.016 116.616 13.016C117.245 13.016 117.762 13.1333 118.168 13.368C118.573 13.6027 118.877 13.96 119.08 14.44C119.282 14.9093 119.384 15.5067 119.384 16.232V20.104C119.384 20.4347 119.298 20.6907 119.128 20.872C118.957 21.0427 118.712 21.128 118.392 21.128C118.072 21.128 117.821 21.0427 117.64 20.872C117.469 20.6907 117.384 20.4347 117.384 20.104V16.328C117.384 15.72 117.266 15.2773 117.032 15C116.808 14.7227 116.456 14.584 115.976 14.584C115.389 14.584 114.92 14.7707 114.568 15.144C114.226 15.5067 114.056 15.992 114.056 16.6V20.104C114.056 20.7867 113.72 21.128 113.048 21.128ZM123.991 21.16C123.426 21.16 122.919 21.0533 122.471 20.84C122.034 20.616 121.687 20.3173 121.431 19.944C121.186 19.5707 121.063 19.1493 121.063 18.68C121.063 18.104 121.212 17.6507 121.511 17.32C121.81 16.9787 122.295 16.7333 122.967 16.584C123.639 16.4347 124.54 16.36 125.671 16.36H126.471V17.512H125.687C125.026 17.512 124.498 17.544 124.103 17.608C123.708 17.672 123.426 17.784 123.255 17.944C123.095 18.0933 123.015 18.3067 123.015 18.584C123.015 18.936 123.138 19.224 123.383 19.448C123.628 19.672 123.97 19.784 124.407 19.784C124.759 19.784 125.068 19.704 125.335 19.544C125.612 19.3733 125.831 19.144 125.991 18.856C126.151 18.568 126.231 18.2373 126.231 17.864V16.024C126.231 15.4907 126.114 15.1067 125.879 14.872C125.644 14.6373 125.25 14.52 124.695 14.52C124.386 14.52 124.05 14.5573 123.687 14.632C123.335 14.7067 122.962 14.8347 122.567 15.016C122.364 15.112 122.183 15.1387 122.023 15.096C121.874 15.0533 121.756 14.968 121.671 14.84C121.586 14.7013 121.543 14.552 121.543 14.392C121.543 14.232 121.586 14.0773 121.671 13.928C121.756 13.768 121.9 13.6507 122.103 13.576C122.594 13.3733 123.063 13.2293 123.511 13.144C123.97 13.0587 124.386 13.016 124.759 13.016C125.527 13.016 126.156 13.1333 126.647 13.368C127.148 13.6027 127.522 13.96 127.767 14.44C128.012 14.9093 128.135 15.5173 128.135 16.264V20.104C128.135 20.4347 128.055 20.6907 127.895 20.872C127.735 21.0427 127.506 21.128 127.207 21.128C126.908 21.128 126.674 21.0427 126.503 20.872C126.343 20.6907 126.263 20.4347 126.263 20.104V19.336H126.391C126.316 19.7093 126.167 20.0347 125.943 20.312C125.73 20.5787 125.458 20.7867 125.127 20.936C124.796 21.0853 124.418 21.16 123.991 21.16ZM131.157 21.128C130.837 21.128 130.592 21.0427 130.421 20.872C130.25 20.6907 130.165 20.4347 130.165 20.104V14.056C130.165 13.7253 130.25 13.4747 130.421 13.304C130.592 13.1333 130.832 13.048 131.141 13.048C131.45 13.048 131.69 13.1333 131.861 13.304C132.032 13.4747 132.117 13.7253 132.117 14.056V15.144L131.941 14.744C132.176 14.1787 132.538 13.752 133.029 13.464C133.53 13.1653 134.096 13.016 134.725 13.016C135.354 13.016 135.872 13.1333 136.277 13.368C136.682 13.6027 136.986 13.96 137.189 14.44C137.392 14.9093 137.493 15.5067 137.493 16.232V20.104C137.493 20.4347 137.408 20.6907 137.237 20.872C137.066 21.0427 136.821 21.128 136.501 21.128C136.181 21.128 135.93 21.0427 135.749 20.872C135.578 20.6907 135.493 20.4347 135.493 20.104V16.328C135.493 15.72 135.376 15.2773 135.141 15C134.917 14.7227 134.565 14.584 134.085 14.584C133.498 14.584 133.029 14.7707 132.677 15.144C132.336 15.5067 132.165 15.992 132.165 16.6V20.104C132.165 20.7867 131.829 21.128 131.157 21.128Z" fill="#6366F1"/>
</svg>
